HIERARCHY
ROOT Hips
{
	OFFSET 0.000000 0.000000 0.000000
	CHANNELS 6 Xposition Yposition Zposition Zrotation Yrotation Xrotation 
	JOINT LHipJoint
	{
		OFFSET 0.000000 0.000000 0.000000
		CHANNELS 3 Zrotation Yrotation Xrotation
		JOINT LeftUpLeg
		{
			OFFSET 1.363060 -1.794630 0.839290
			CHANNELS 3 Zrotation Yrotation Xrotation
			JOINT LeftLeg
			{
				OFFSET 2.448110 -6.726130 0.000000
				CHANNELS 3 Zrotation Yrotation Xrotation
				JOINT LeftFoot
				{
					OFFSET 2.562200 -7.039590 0.000000
					CHANNELS 3 Zrotation Yrotation Xrotation
					JOINT LeftToeBase
					{
						OFFSET 0.157640 -0.433110 2.322550
						CHANNELS 3 Zrotation Yrotation Xrotation
						End Site
						{
							OFFSET 0.000000 0.000000 0.000000
						}
					}
				}
			}
		}
	}
	JOINT RHipJoint
	{
		OFFSET 0.000000 0.000000 0.000000
		CHANNELS 3 Zrotation Yrotation Xrotation
		JOINT RightUpLeg
		{
			OFFSET -1.305520 -1.794630 0.839290
			CHANNELS 3 Zrotation Yrotation Xrotation
			JOINT RightLeg
			{
				OFFSET -2.542530 -6.985550 0.000000
				CHANNELS 3 Zrotation Yrotation Xrotation
				JOINT RightFoot
				{
					OFFSET -2.568260 -7.056230 0.000000
					CHANNELS 3 Zrotation Yrotation Xrotation
					JOINT RightToeBase
					{
						OFFSET -0.164730 -0.452590 2.363150
						CHANNELS 3 Zrotation Yrotation Xrotation
						End Site
						{
							OFFSET 0.000000 0.000000 0.000000
						}
					}
				}
			}
		}
	}
	JOINT LowerBack
	{
		OFFSET 0.000000 0.000000 0.000000
		CHANNELS 3 Zrotation Yrotation Xrotation
		JOINT Spine
		{
			OFFSET 0.028270 2.035590 -0.193380
			CHANNELS 3 Zrotation Yrotation Xrotation
			JOINT Spine1
			{
				OFFSET 0.056720 2.048850 -0.042750
				CHANNELS 3 Zrotation Yrotation Xrotation
				JOINT Neck
				{
					OFFSET 0.000000 0.000000 0.000000
					CHANNELS 3 Zrotation Yrotation Xrotation
					JOINT Neck1
					{
						OFFSET -0.054170 1.746240 0.172020
						CHANNELS 3 Zrotation Yrotation Xrotation
						JOINT Head
						{
							OFFSET 0.104070 1.761360 -0.123970
							CHANNELS 3 Zrotation Yrotation Xrotation
							End Site
							{
								OFFSET 0.000000 0.000000 0.000000
							}
						}
					}
				}
				JOINT LeftShoulder
				{
					OFFSET 0.000000 0.000000 0.000000
					CHANNELS 3 Zrotation Yrotation Xrotation
					JOINT LeftArm
					{
						OFFSET 3.362410 1.200890 -0.311210
						CHANNELS 3 Zrotation Yrotation Xrotation
						JOINT LeftForeArm
						{
							OFFSET 4.983000 -0.000000 -0.000000
							CHANNELS 3 Zrotation Yrotation Xrotation
							JOINT LeftHand
							{
								OFFSET 3.483560 -0.000000 -0.000000
								CHANNELS 3 Zrotation Yrotation Xrotation
								JOINT LeftFingerBase
								{
									OFFSET 0.000000 0.000000 0.000000
									CHANNELS 3 Zrotation Yrotation Xrotation
									JOINT LeftHandIndex1
									{
										OFFSET 0.715260 -0.000000 -0.000000
										CHANNELS 3 Zrotation Yrotation Xrotation
										End Site
										{
											OFFSET 0.000000 0.000000 0.000000
										}
									}
								}
								JOINT LThumb
								{
									OFFSET 0.000000 0.000000 0.000000
									CHANNELS 3 Zrotation Yrotation Xrotation
									End Site
									{
										OFFSET 0.000000 0.000000 0.000000
									}
								}
							}
						}
					}
				}
				JOINT RightShoulder
				{
					OFFSET 0.000000 0.000000 0.000000
					CHANNELS 3 Zrotation Yrotation Xrotation
					JOINT RightArm
					{
						OFFSET -3.136600 1.374050 -0.404650
						CHANNELS 3 Zrotation Yrotation Xrotation
						JOINT RightForeArm
						{
							OFFSET -5.241900 -0.000000 -0.000000
							CHANNELS 3 Zrotation Yrotation Xrotation
							JOINT RightHand
							{
								OFFSET -3.444170 -0.000000 -0.000000
								CHANNELS 3 Zrotation Yrotation Xrotation
								JOINT RightFingerBase
								{
									OFFSET 0.000000 0.000000 0.000000
									CHANNELS 3 Zrotation Yrotation Xrotation
									JOINT RightHandIndex1
									{
										OFFSET -0.622530 -0.000000 -0.000000
										CHANNELS 3 Zrotation Yrotation Xrotation
										End Site
										{
											OFFSET 0.000000 0.000000 0.000000
										}
									}
								}
								JOINT RThumb
								{
									OFFSET 0.000000 0.000000 0.000000
									CHANNELS 3 Zrotation Yrotation Xrotation
									End Site
									{
										OFFSET 0.000000 0.000000 0.000000
									}
								}
							}
						}
					}
				}
			}
		}
	}
}
MOTION
Frames: 9
Frame Time: 0.008333
42.946582 17.761539 5.394102 -116.214038 -82.533758 128.819081 -1.587708 -0.835861 -0.483511 -5.575401 -5.630902 -7.087317 -0.475104 4.067968 9.876360 -1.772381 10.047226 -2.525254 0.124100 -2.271300 -6.256000 0.927065 1.428841 -1.728165 28.228425 7.945535 -9.191765 -0.165585 -6.012796 15.275600 1.655907 -10.983945 -5.565601 -0.480300 -4.444200 12.329800 4.816871 -3.100381 -3.077729 1.787800 -4.185855 -5.803626 5.308832 -2.369867 -0.990606 -11.532485 -9.735443 -12.230559 7.510584 -11.480701 7.045920 3.690100 -5.655700 7.608700 6.561244 3.045666 0.567964 -95.957792 4.430864 4.225602 10.512099 -28.748477 -3.158424 1.939253 2.478552 27.548444 14.907454 23.031344 4.978700 -7.125000 0.000000 0.000000 -13.892500 49.943000 -1.722200 -3.490999 -3.312325 -1.635008 85.067830 2.224820 19.523973 -10.328988 22.315257 -2.152819 -0.521181 0.494065 13.488241 -15.409165 -23.992484 6.234600 7.125000 0.000000 0.000000 15.484300 -54.483200 -3.674300 
42.936280 17.760939 5.385900 -116.235084 -82.529494 128.854478 -1.585949 -0.835771 -0.481447 -5.553984 -5.630405 -7.116154 -0.468809 4.100813 9.970204 -1.767814 10.022527 -2.587721 0.127700 -2.303300 -6.344700 0.927089 1.428324 -1.722310 28.253507 7.829539 -9.207818 -0.164349 -6.004930 15.257782 1.630324 -10.857384 -5.531785 -0.474400 -4.417100 12.253100 4.816950 -3.108893 -3.043695 1.794869 -4.194928 -5.831458 5.330066 -2.376267 -1.080486 -11.591406 -9.707329 -12.219563 7.606093 -11.443333 7.132432 3.741400 -5.634900 7.647600 6.553982 3.038606 0.567765 -95.959028 4.552954 4.244789 10.555435 -28.797711 -3.171509 1.938464 2.488803 27.514549 14.906234 23.129892 5.001000 -7.125000 0.000000 0.000000 -13.924500 50.032000 -1.757200 -3.486762 -3.302515 -1.637606 85.066896 2.109745 19.582497 -10.340929 22.333327 -2.160938 -0.519171 0.494704 13.447229 -15.325922 -23.813766 6.156900 7.125000 0.000000 0.000000 15.475400 -54.293800 -3.599900 
42.925679 17.759939 5.374999 -116.932742 -82.469489 129.589288 -1.581840 -0.835974 -0.485232 -5.509332 -5.610357 -7.160745 -0.459892 4.146953 10.095703 -1.776163 10.048950 -2.731732 0.127300 -2.299800 -6.334800 0.924806 1.431842 -1.726786 28.290972 7.866799 -9.202943 -0.166294 -6.010742 15.277554 1.607403 -10.744771 -5.516175 -0.476100 -4.425100 12.275900 4.798181 -2.995392 -2.947241 1.756614 -4.034433 -5.806094 5.265641 -2.294382 -1.034299 -11.348902 -9.859882 -12.618212 7.375260 -11.645124 7.183583 3.564900 -5.723400 7.745800 6.551965 3.044237 0.552844 -95.813601 4.293870 4.408681 10.494611 -28.707755 -3.146017 1.924605 2.467673 27.603830 14.799476 22.925361 4.922300 -7.125000 0.000000 0.000000 -13.950800 49.839200 -1.693600 -3.493138 -3.323352 -1.639175 85.233588 2.312158 19.260991 -10.261717 22.196281 -2.128223 -0.518385 0.495428 13.558931 -15.395134 -23.780714 6.179000 7.125000 0.000000 0.000000 15.389900 -54.274700 -3.572000 
42.914277 17.758139 5.364397 -117.113612 -82.397164 129.800425 -1.576364 -0.837120 -0.488246 -5.410255 -5.597292 -7.223369 -0.449508 4.194324 10.228677 -1.782040 10.064951 -2.813708 0.129800 -2.322600 -6.398000 0.922252 1.431709 -1.726144 28.377692 7.810506 -9.211016 -0.165837 -6.006925 15.269860 1.578425 -10.602345 -5.490690 -0.482200 -4.453000 12.354800 4.793876 -2.971367 -2.940898 1.767638 -4.002082 -5.801439 5.326127 -2.280863 -1.003517 -11.551403 -9.806567 -12.933839 7.924113 -11.544298 7.453272 3.812100 -5.632800 7.953200 6.544157 3.071313 0.547885 -95.820451 4.248279 4.370423 10.478854 -28.685552 -3.140785 1.923128 2.459042 27.650571 14.795108 22.833611 4.900800 -7.125000 0.000000 0.000000 -13.923300 49.755800 -1.661100 -3.508159 -3.302133 -1.634448 85.255898 2.256546 19.331338 -10.351649 22.342293 -2.169060 -0.517549 0.493831 13.464698 -15.207996 -23.615362 6.059300 7.125000 0.000000 0.000000 15.491100 -54.076400 -3.520700 
42.903175 17.756439 5.355096 -117.490119 -82.405562 130.206894 -1.576068 -0.839053 -0.490554 -5.433329 -5.621595 -7.248664 -0.442036 4.240206 10.355632 -1.777931 10.041523 -2.961214 0.126000 -2.288200 -6.302700 0.921507 1.434003 -1.724695 28.364231 7.727579 -9.219539 -0.165524 -6.003269 15.265749 1.547032 -10.446059 -5.487586 -0.492200 -4.498400 12.483300 4.731532 -2.954230 -2.990966 1.764671 -3.979722 -5.800054 5.358135 -2.267803 -0.978036 -11.621375 -9.813629 -12.836253 8.020785 -11.550941 7.387933 3.863300 -5.634300 7.918300 6.549747 3.082895 0.548031 -95.813935 4.182604 4.319167 10.415188 -28.610193 -3.123489 1.934555 2.443205 27.712310 14.891468 22.745697 4.911000 -7.125000 0.000000 0.000000 -13.815400 49.690000 -1.625100 -3.513309 -3.301621 -1.628660 85.269658 2.211535 19.383956 -10.345499 22.336976 -2.171928 -0.514900 0.494994 13.401335 -15.138814 -23.355842 5.970000 7.125000 0.000000 0.000000 15.429900 -53.812100 -3.405600 
42.891673 17.753038 5.343494 -117.245328 -82.249586 129.973953 -1.562091 -0.841107 -0.500283 -5.214160 -5.589978 -7.261213 -0.430487 4.280755 10.473270 -1.774905 10.018524 -3.064987 0.118900 -2.222800 -6.121800 0.914587 1.430747 -1.736338 28.607563 7.837471 -9.147894 -0.170168 -6.024210 15.319496 1.540121 -10.419264 -5.581103 -0.497700 -4.522900 12.552600 4.884639 -2.901717 -3.041991 1.765030 -3.922315 -5.730929 5.292034 -2.239747 -0.775836 -11.709302 -9.896398 -12.904614 8.262712 -11.627235 7.133738 3.959500 -5.649900 7.864200 6.550896 3.120143 0.549678 -95.753628 3.905899 4.348941 10.364058 -28.550225 -3.111445 1.948940 2.435029 27.771091 14.979741 22.774769 4.944700 -7.125000 0.000000 0.000000 -13.755500 49.730500 -1.631700 -3.530845 -3.308346 -1.610945 85.337093 2.342311 19.428736 -10.363891 22.376818 -2.185040 -0.514051 0.493574 13.292822 -15.039611 -23.173973 5.885800 7.125000 0.000000 0.000000 15.437100 -53.615500 -3.332200 
42.882072 17.752238 5.333293 -117.758796 -82.293312 130.512815 -1.565340 -0.848241 -0.503099 -5.278331 -5.589302 -7.388376 -0.414545 4.372860 10.729562 -1.763703 9.964710 -3.216197 0.127100 -2.298200 -6.330600 0.914629 1.431567 -1.728767 28.551892 7.826147 -9.159255 -0.172522 -6.030262 15.343662 1.524065 -10.336772 -5.590296 -0.497700 -4.522800 12.552400 4.758054 -2.964597 -3.106222 1.797526 -4.007230 -5.761553 5.431403 -2.278951 -0.840096 -11.875996 -9.810865 -12.531833 8.307128 -11.512040 7.009659 4.032900 -5.612400 7.736500 6.558419 3.109206 0.565756 -95.891799 4.162084 4.146703 10.436565 -28.648720 -3.136318 1.943547 2.444029 27.749203 14.959117 22.771551 4.938000 -7.125000 0.000000 0.000000 -13.763900 49.719400 -1.629000 -3.519177 -3.296743 -1.621316 84.985286 1.778509 20.410987 -10.609011 22.783172 -2.282110 -0.519968 0.487184 12.573473 -14.871785 -23.410097 5.869300 7.125000 0.000000 0.000000 15.718600 -53.814400 -3.472600 
42.869370 17.748837 5.322991 -117.881284 -82.283577 130.664455 -1.560974 -0.853639 -0.509328 -5.242597 -5.562136 -7.473523 -0.401439 4.438470 10.914561 -1.749704 9.899870 -3.346237 0.125100 -2.280000 -6.280100 0.913158 1.431884 -1.728819 28.589464 7.814884 -9.151761 -0.173768 -6.034533 15.358968 1.504585 -10.242001 -5.654217 -0.509700 -4.576100 12.703400 4.768327 -3.004019 -3.163910 1.808879 -4.064248 -5.753076 5.446031 -2.307697 -0.791089 -12.016410 -9.758194 -12.518370 8.482317 -11.420689 6.992250 4.140300 -5.562700 7.734000 6.557037 3.120419 0.567853 -95.906155 4.155121 3.969102 10.439613 -28.644616 -3.139072 1.942739 2.445234 27.748307 14.945997 22.773518 4.934100 -7.125000 0.000000 0.000000 -13.775800 49.719000 -1.630300 -3.524492 -3.291359 -1.614492 85.017369 1.810219 20.565229 -10.563751 22.713992 -2.261286 -0.521450 0.487259 12.581494 -14.914484 -23.499774 5.907600 7.125000 0.000000 0.000000 15.722300 -53.909600 -3.510500 
42.859069 17.745737 5.311589 -118.021164 -82.212592 130.847961 -1.546553 -0.862812 -0.532832 -5.158908 -5.551748 -7.578038 -0.384018 4.523518 11.146989 -1.750061 9.894665 -3.501040 0.064700 -1.641400 -4.515600 0.912651 1.438429 -1.746231 28.694063 7.858457 -9.149604 -0.178673 -6.055548 15.415286 1.492841 -10.188051 -5.697274 -0.503200 -4.547300 12.621900 4.852766 -2.844246 -3.223807 1.727088 -3.851491 -5.635459 5.192754 -2.202791 -0.417981 -11.647663 -9.991005 -13.172224 8.434157 -11.740645 7.029569 3.990200 -5.674900 7.890900 6.541287 3.174602 0.548335 -95.602305 3.560605 4.262852 10.344688 -28.509178 -3.106471 1.943525 2.426857 27.856305 14.908104 22.757398 4.919200 -7.125000 0.000000 0.000000 -13.815600 49.712500 -1.632900 -3.555728 -3.331844 -1.600320 85.376757 2.219750 20.111478 -10.534976 22.670426 -2.245425 -0.526957 0.483551 12.655433 -14.984008 -23.790920 6.001700 7.125000 0.000000 0.000000 15.801900 -54.200900 -3.642600 
